<?xml version="1.0" encoding="utf-8"?>
<!-- Generator: Adobe Illustrator 23.0.2, SVG Export Plug-In . SVG Version: 6.00 Build 0)  -->
<svg version="1.1" id="Layer_1" xmlns="http://www.w3.org/2000/svg" xmlns:xlink="http://www.w3.org/1999/xlink" x="0px" y="0px"
	 viewBox="0 0 500 700" style="enable-background:new 0 0 500 700;" xml:space="preserve">
<style type="text/css">
	.st0{fill:#595856;}
</style>
<path class="st0" d="M311.1,206.6L466.5,7.9c0.5-0.7,0.8-1.4,0.8-2.2c0.1-1.3-0.4-2.6-1.5-3.5c-1.8-1.4-4.3-1.1-5.7,0.7L293.3,216.4
	c-4.8,6.2-12.2,9.8-20.1,9.8h-46.5c-7.8,0-15.3-3.6-20.1-9.8L39.9,2.9c-1.4-1.8-3.9-2.1-5.7-0.7c-1.1,0.9-1.6,2.2-1.5,3.5
	c0,0.8,0.3,1.5,0.8,2.2l155.2,198.7c15.5,19.8,27.7,41.8,36.3,65l0.4,1c9.8,26.7,14.9,55,14.9,83.8v249.7
	c0,43.9-34.6,81.8-78.5,81.8h-48.4c-3.6,0-6.5,2.9-6.5,6.5v1.8c0,2.1,1.7,3.8,3.8,3.8h282.5c2.1,0,3.8-1.7,3.8-3.8v-2.7
	c0-3.6-2.9-6.5-6.5-6.5H339c-43.9,0-79.5-36.9-79.5-80.8V356.5C259.5,302.2,277.7,249.4,311.1,206.6z"/>
</svg>
