<?xml version="1.0" encoding="utf-8"?>
<!-- Generator: Adobe Illustrator 23.0.2, SVG Export Plug-In . SVG Version: 6.00 Build 0)  -->
<svg version="1.1" id="Layer_1" xmlns="http://www.w3.org/2000/svg" xmlns:xlink="http://www.w3.org/1999/xlink" x="0px" y="0px"
	 viewBox="0 0 240 700" style="enable-background:new 0 0 240 700;" xml:space="preserve">
<style type="text/css">
	.st0{fill:#595856;}
</style>
<path class="st0" d="M229,5.5v650.4c0,6.1-4.9,11-11,11H22c-6.1,0-11-4.9-11-11V5.5C11,2.5,8.5,0,5.5,0h0C2.5,0,0,2.5,0,5.5v661.4
	v22c0,6.1,4.9,11,11,11h0h218h0c6.1,0,11-4.9,11-11v-22V5.5c0-3-2.5-5.5-5.5-5.5l0,0C231.5,0,229,2.5,229,5.5z"/>
</svg>
